<svg id="White_logo" data-name="White logo" xmlns="http://www.w3.org/2000/svg" viewBox="0 0 494.5248 319.92018"><defs><style>.cls-1{fill:#fff;}</style></defs><title>logo</title><path class="cls-1" d="M1234.89891,445.74273c-.99453,16.86439-9.52474,29.933-23.30766,39.12153-8.19415,5.45571-17.27066,9.64384-26.151,13.993-21.66879,10.61733-43.45675,20.99652-65.19564,31.45274q-42.231,20.31711-84.4691,40.60627-44.10108,21.25209-88.1671,42.56729-33.06,15.947-66.169,31.78183a7.72192,7.72192,0,0,1-5.18962.27315c-11.8499-3.85192-23.6368-7.92095-35.43067-11.92694-.63734-.2171-1.23964-.53928-2.61234-1.14858,11.48576-5.28763,22.26415-10.27412,33.05653-15.2256q48.95449-22.42873,97.91591-44.83641,45.28818-20.73735,90.59033-41.46072,57.21153-26.22107,114.40906-52.4702c7.41676-3.39668,15.26766-6.14209,20.96851-12.27716a60.29279,60.29279,0,0,0,8.2151-11.17755c4.22313-7.45174,2.77344-14.74937-3.03249-20.53427a201.97762,201.97762,0,0,0-18.60834-15.81391c-8.026-6.26113-15.947-12.52927-21.33263-21.42368-5.29469-8.73338-5.51175-18.34216-5.30871-28.09106.37822-17.49473,13.00555-31.50173,30.87148-34.50621,7.16456-1.21164,14.161-1.21164,21.08051.97349.98051.30812,2.4443,1.49872,2.41626,2.24109-.3082,9.1676-.85441,18.32819-1.35171,27.71986-4.42618-.79841-8.4042-1.54779-12.38924-2.2201-3.41061-.57429-6.70932-.091-8.88039,2.77336-2.45122,3.23561-3.69786,7.34671-1.35863,10.79943a48.95157,48.95157,0,0,0,9.86089,10.58227c7.17859,5.73587,15.31665,10.34418,22.124,16.46523C1229.70228,414.99034,1235.87942,429.17243,1234.89891,445.74273Z" transform="translate(-740.4752 -325.94088)"/><path class="cls-1" d="M874.37979,538.5741c-2.58429,18.84639-9.06954,35.942-22.92945,49.49371-12.088,11.8149-27.01951,18.46121-43.19757,22.53025-12.62733,3.1726-24.7574,1.77891-36.13808-4.72737-11.962-6.84239-19.12655-17.62779-23.72085-30.164a126.89389,126.89389,0,0,1-4.93746-71.55478c3.57878-16.73833,8.53026-32.89541,16.90646-47.91091,10.94647-19.63083,26.26312-34.94748,45.42468-46.51723,18.46122-11.13558,38.65231-17.7889,59.45972-22.83143a17.1558,17.1558,0,0,1,2.48624-.16107c-1.51975,7.0035-2.94849,13.67781-4.4122,20.35217-.72839,3.29866-1.77891,6.55526-2.17812,9.88894-.34316,2.89945-1.8559,3.81691-4.39817,4.46122a130.08551,130.08551,0,0,0-33.72883,13.25061c-19.932,11.54876-33.84092,28.33617-42.44123,49.52175-6.47123,15.961-11.06552,32.45424-10.63131,49.88591.25913,10.44925,1.84894,20.75137,7.05253,30.017a45.94736,45.94736,0,0,0,7.914,10.099,15.86765,15.86765,0,0,0,13.57979,4.32115c25.17759-3.48072,44.93443-24.93244,44.51424-49.22057-.021-1.23262-.28717-2.45823-.49727-4.15311-13.4327,4.83243-26.20708,9.42673-39.60477,14.24514.37817-5.26665.67936-9.87492,1.0365-14.47622.62332-7.9,1.32367-15.7999,1.912-23.70687.16808-2.26212.70035-3.85193,3.18659-4.75536,20.69533-7.49376,41.34163-15.13455,62.56923-22.93646.57429,3.42472,1.21865,6.66734,1.64585,9.945C875.61241,501.79171,876.908,520.14088,874.37979,538.5741Z" transform="translate(-740.4752 -325.94088)"/><path class="cls-1" d="M983.13711,462.1379c-.44819,20.11407-2.8294,39.99-8.17307,59.42472-5.946,21.60577-15.15558,41.46768-32.58726,56.32913-5.35769,4.56625-11.73787,7.94895-17.76787,11.67482-.93148.57429-3.10259.65132-3.69086.014-5.86193-6.30315-11.50674-12.80241-17.2076-19.24564,2.97648-1.6108,7.4307-4.041,11.89894-6.43622,4.39821-2.36719,8.69833-4.8394,11.85691-9.46173-34.59725-20.75834-47.9039-53.46469-52.63126-91.78085,4.013.65834,7.74586,1.25366,11.46472,1.87694,6.31713,1.07155,12.62028,2.24113,18.95147,3.19359,2.15709.32218,2.91343,1.42173,3.14456,3.39672,2.93447,24.93244,15.60377,44.24109,34.6533,59.8379.77041.63029,1.63183,1.15555,3.09558,2.18509,1.65281-7.60579,3.27763-14.57428,4.67833-21.5918,4.083-20.52024,5.8479-41.29961,6.83542-62.16306.056-1.16958,1.14153-3.10255,2.045-3.29161,7.28361-1.54779,14.63729-2.7734,21.977-4.06207a5.85742,5.85742,0,0,1,1.48474.16808C983.16515,448.91529,983.29121,455.53361,983.13711,462.1379Z" transform="translate(-740.4752 -325.94088)"/><path class="cls-1" d="M1148.931,464.22493a69.11318,69.11318,0,0,1-30.92046,22.63531,30.50637,30.50637,0,0,1-16.82943,1.20463c-11.21962-2.08006-18.56628-8.81041-22.81737-19.05654-4.76232-11.47874-5.09856-23.65083-4.53825-35.80188.6093-13.20859,2.71035-26.21409,7.32563-38.6733,4.20911-11.38068,10.35119-21.43073,21.01751-27.972,10.51927-6.43622,22.131-7.984,34.61833-7.68286-.79148,9.48973-1.44276,18.31416-2.38121,27.10354-.11208.99449-1.68786,2.1641-2.83645,2.6473-4.8114,2.017-9.938,3.38271-14.53226,5.77789-5.86893,3.06057-8.55124,8.59331-9.72787,15.961,7.16457-1.89095,13.78293-3.63482,20.82139-5.49076.60939,9.16059,1.26066,17.957,1.66692,26.76038.035.7914-1.33778,2.031-2.31119,2.40921-7.59185,2.96948-15.19755,5.918-22.9014,8.56526-2.83645.98051-3.50876,2.26913-2.82243,5.11956,1.84884,7.67585,6.78635,10.37919,14.091,7.08754a47.776,47.776,0,0,0,7.935-5.00047c2.54227-1.82794,4.90244-3.915,7.49371-6.002C1136.59781,449.95881,1142.68381,456.99736,1148.931,464.22493Z" transform="translate(-740.4752 -325.94088)"/><path class="cls-1" d="M1024.1496,354.76726c-8.23608,16.108-11.0515,33.39268-10.30212,51.1886.52526,12.43121,2.087,24.83438,3.63481,37.19557,2.70334,21.62681,6.23309,43.17654,4.97247,65.09052-.27315,4.72736-.89642,9.43369-1.41468,14.66532-10.1761-2.64734-19.80591-5.14759-29.56879-7.68286.59528-5.71483,1.77887-11.25462,1.61781-16.75235-.40622-13.958-1.17659-27.91594-2.23412-41.8389-1.44973-19.15459-4.25113-38.26011-4.72035-57.42869-.49727-20.21208,4.42621-39.52775,15.74385-56.75634,1.38672-2.11507,2.90647-4.1461,4.63631-6.59732,6.14208,5.51175,11.8149,10.51927,17.32669,15.70187A3.48426,3.48426,0,0,1,1024.1496,354.76726Z" transform="translate(-740.4752 -325.94088)"/><path class="cls-1" d="M1066.899,353.12847c-5.20355,12.64131-8.37616,25.81489-7.87193,39.47171.64427,17.68383,1.89091,35.35365,3.33368,52.99546,1.69479,20.75137,2.3671,41.42571-1.47081,62.023-.29409,1.5898-.7843,3.13755-1.26759,5.03551-9.07659-3.36868-17.985-6.66734-26.96347-9.994.92443-5.56775,2.47918-10.91843,2.57032-16.29712.23809-13.01952.3011-26.081-.50423-39.07254-1.10661-17.78185-3.873-35.4727-4.4823-53.25459-.81239-23.65784,4.25113-46.097,18.4262-65.76287.40626-.56728.81944-1.12756,1.25365-1.67381a5.7327,5.7327,0,0,1,.86843-.65833c4.41925,4.11806,8.92245,8.25711,13.35572,12.48024,2.185,2.08,5.51167,4.062,5.98093,6.53424C1070.58984,347.38559,1068.03354,350.35507,1066.899,353.12847Z" transform="translate(-740.4752 -325.94088)"/></svg>