<svg id="White_logo" data-name="White logo" xmlns="http://www.w3.org/2000/svg" viewBox="0 0 494.525 319.92"><defs><style>.cls-1{fill:#fff}</style></defs><path class="cls-1" d="M1234.899 445.743c-.995 16.864-9.525 29.933-23.308 39.121-8.194 5.456-17.27 9.644-26.15 13.993-21.67 10.618-43.458 20.997-65.196 31.453q-42.231 20.317-84.47 40.606-44.1 21.252-88.167 42.568-33.06 15.947-66.169 31.781a7.722 7.722 0 01-5.19.274c-11.85-3.852-23.636-7.921-35.43-11.927-.637-.218-1.24-.54-2.612-1.149 11.486-5.288 22.264-10.274 33.056-15.226q48.955-22.428 97.916-44.836 45.288-20.737 90.59-41.46 57.212-26.222 114.41-52.47c7.416-3.398 15.267-6.143 20.968-12.278a60.293 60.293 0 008.215-11.178c4.223-7.451 2.774-14.749-3.032-20.534a201.978 201.978 0 00-18.609-15.814c-8.026-6.26-15.947-12.53-21.332-21.423-5.295-8.734-5.512-18.343-5.309-28.092.378-17.494 13.006-31.501 30.872-34.506 7.164-1.211 14.16-1.211 21.08.974.98.308 2.444 1.498 2.416 2.24-.308 9.168-.854 18.329-1.351 27.72-4.427-.798-8.405-1.547-12.39-2.22-3.41-.574-6.709-.09-8.88 2.774-2.451 3.236-3.698 7.347-1.359 10.8a48.952 48.952 0 009.861 10.582c7.179 5.736 15.317 10.344 22.124 16.465 12.25 11.01 18.426 25.191 17.446 41.762zM874.38 538.574c-2.585 18.846-9.07 35.942-22.93 49.494-12.088 11.815-27.02 18.461-43.197 22.53-12.628 3.173-24.758 1.779-36.138-4.727-11.962-6.843-19.127-17.628-23.721-30.164a126.894 126.894 0 01-4.938-71.555c3.58-16.738 8.53-32.895 16.907-47.911 10.946-19.63 26.263-34.947 45.425-46.517 18.46-11.136 38.652-17.79 59.46-22.832a17.156 17.156 0 012.485-.16c-1.52 7.003-2.948 13.677-4.412 20.351-.728 3.3-1.779 6.556-2.178 9.89-.343 2.899-1.856 3.816-4.398 4.46a130.086 130.086 0 00-33.729 13.251c-19.932 11.549-33.84 28.336-42.441 49.522-6.471 15.961-11.066 32.454-10.631 49.886.259 10.45 1.849 20.751 7.052 30.017a45.947 45.947 0 007.914 10.099 15.868 15.868 0 0013.58 4.321c25.178-3.48 44.934-24.932 44.514-49.22-.02-1.233-.287-2.459-.497-4.154-13.433 4.833-26.207 9.427-39.605 14.245.378-5.266.68-9.874 1.037-14.476.623-7.9 1.323-15.8 1.912-23.707.168-2.262.7-3.852 3.186-4.755 20.696-7.494 41.342-15.135 62.57-22.936.574 3.424 1.218 6.667 1.645 9.945 2.36 18.32 3.656 36.67 1.128 55.103z" transform="translate(-740.475 -325.94)"/><path class="cls-1" d="M983.137 462.138c-.448 20.114-2.83 39.99-8.173 59.425-5.946 21.605-15.156 41.467-32.587 56.329-5.358 4.566-11.738 7.949-17.768 11.675-.932.574-3.103.65-3.691.014-5.862-6.304-11.507-12.803-17.208-19.246 2.977-1.61 7.431-4.041 11.9-6.436 4.398-2.367 8.698-4.84 11.856-9.462-34.597-20.758-47.904-53.465-52.631-91.78 4.013.657 7.746 1.253 11.465 1.876 6.317 1.072 12.62 2.241 18.951 3.194 2.157.322 2.914 1.421 3.145 3.396 2.934 24.933 15.604 44.241 34.653 59.838.77.63 1.632 1.156 3.096 2.185 1.652-7.605 3.277-14.574 4.678-21.591 4.083-20.52 5.848-41.3 6.835-62.163.056-1.17 1.142-3.103 2.045-3.292 7.284-1.548 14.638-2.774 21.977-4.062a5.857 5.857 0 011.485.168c0 6.71.126 13.328-.028 19.932zm165.794 2.087a69.113 69.113 0 01-30.92 22.635 30.506 30.506 0 01-16.83 1.205c-11.22-2.08-18.566-8.81-22.817-19.057-4.763-11.478-5.099-23.65-4.539-35.802.61-13.208 2.71-26.214 7.326-38.673 4.21-11.38 10.351-21.43 21.018-27.972 10.519-6.436 22.13-7.984 34.618-7.683-.792 9.49-1.443 18.314-2.381 27.104-.112.994-1.688 2.164-2.837 2.647-4.811 2.017-9.938 3.383-14.532 5.778-5.869 3.06-8.551 8.593-9.728 15.961l20.822-5.49c.609 9.16 1.26 17.956 1.666 26.76.035.791-1.337 2.03-2.31 2.409-7.593 2.97-15.198 5.918-22.902 8.565-2.837.98-3.509 2.27-2.823 5.12 1.85 7.676 6.787 10.379 14.091 7.087a47.776 47.776 0 007.935-5c2.543-1.828 4.903-3.915 7.494-6.002 5.316 6.142 11.402 13.18 17.649 20.408zM1024.15 354.767c-8.236 16.108-11.052 33.393-10.303 51.189.526 12.431 2.087 24.834 3.635 37.195 2.704 21.627 6.233 43.177 4.973 65.09-.273 4.728-.897 9.435-1.415 14.666-10.176-2.647-19.806-5.147-29.569-7.683.596-5.714 1.78-11.254 1.618-16.752-.406-13.958-1.176-27.916-2.234-41.839-1.45-19.154-4.251-38.26-4.72-57.429-.498-20.212 4.426-39.527 15.743-56.756 1.387-2.115 2.907-4.146 4.637-6.597 6.142 5.512 11.815 10.52 17.326 15.702a3.484 3.484 0 01.309 3.214zm42.749-1.639c-5.204 12.642-8.376 25.815-7.872 39.472.644 17.684 1.891 35.354 3.334 52.996 1.695 20.751 2.367 41.425-1.471 62.023-.294 1.59-.784 3.137-1.268 5.035-9.076-3.369-17.985-6.667-26.963-9.994.924-5.568 2.48-10.918 2.57-16.297.238-13.02.301-26.081-.504-39.073-1.107-17.781-3.873-35.472-4.482-53.254-.813-23.658 4.25-46.097 18.426-65.763.406-.567.82-1.128 1.254-1.674a5.733 5.733 0 01.868-.658c4.42 4.118 8.922 8.257 13.356 12.48 2.185 2.08 5.511 4.062 5.98 6.534.463 2.43-2.093 5.4-3.228 8.173z" transform="translate(-740.475 -325.94)"/></svg>