<svg id="Lager_1" data-name="Lager 1" xmlns="http://www.w3.org/2000/svg" viewBox="0 0 494.525 319.92"><defs><style>.cls-1{fill:#1f3d7e}</style></defs><path class="cls-1" d="M498.078 709.406c-.995 16.864-9.525 29.933-23.308 39.122-8.194 5.455-17.27 9.643-26.151 13.993-21.669 10.617-43.457 20.996-65.196 31.452q-42.23 20.317-84.469 40.607-44.1 21.252-88.167 42.567-33.06 15.947-66.169 31.782a7.722 7.722 0 01-5.19.273c-11.85-3.852-23.636-7.921-35.43-11.927-.637-.217-1.24-.54-2.612-1.149 11.485-5.287 22.264-10.274 33.056-15.225q48.955-22.429 97.916-44.837 45.288-20.737 90.59-41.46 57.212-26.221 114.41-52.47c7.416-3.397 15.267-6.143 20.968-12.278a60.293 60.293 0 008.215-11.177c4.223-7.452 2.773-14.75-3.033-20.535a201.976 201.976 0 00-18.608-15.813c-8.026-6.262-15.947-12.53-21.333-21.424-5.294-8.734-5.511-18.342-5.308-28.091.378-17.495 13.005-31.502 30.871-34.506 7.165-1.212 14.161-1.212 21.08.973.981.308 2.445 1.499 2.417 2.241-.308 9.168-.854 18.328-1.352 27.72-4.426-.798-8.404-1.548-12.389-2.22-3.41-.574-6.71-.091-8.88 2.773-2.452 3.236-3.698 7.347-1.359 10.8a48.952 48.952 0 009.86 10.582c7.18 5.736 15.318 10.344 22.125 16.465 12.25 11.01 18.426 25.192 17.446 41.762zm-360.519 92.831c-2.585 18.847-9.07 35.942-22.93 49.494-12.088 11.815-27.02 18.461-43.197 22.53-12.628 3.173-24.758 1.78-36.139-4.727-11.961-6.842-19.126-17.628-23.72-30.164a126.894 126.894 0 01-4.938-71.555c3.579-16.738 8.53-32.895 16.907-47.91 10.946-19.631 26.263-34.948 45.424-46.518 18.462-11.135 38.653-17.789 59.46-22.831a17.156 17.156 0 012.486-.161c-1.52 7.003-2.948 13.677-4.412 20.352-.728 3.298-1.779 6.555-2.178 9.889-.343 2.9-1.856 3.817-4.398 4.46a130.086 130.086 0 00-33.73 13.252c-19.931 11.548-33.84 28.336-42.44 49.521-6.472 15.961-11.066 32.455-10.632 49.886.26 10.45 1.85 20.752 7.053 30.017a45.947 45.947 0 007.914 10.1 15.868 15.868 0 0013.58 4.32c25.177-3.48 44.934-24.932 44.514-49.22-.021-1.233-.287-2.458-.497-4.153L66.08 803.064c.378-5.267.68-9.875 1.036-14.476.624-7.9 1.324-15.8 1.912-23.707.169-2.262.7-3.852 3.187-4.756 20.695-7.493 41.342-15.134 62.57-22.936.574 3.425 1.218 6.667 1.645 9.945 2.36 18.321 3.656 36.67 1.128 55.103z" transform="translate(-3.654 -589.604)"/><path class="cls-1" d="M246.316 725.801c-.448 20.114-2.83 39.99-8.173 59.425-5.946 21.606-15.156 41.468-32.587 56.33-5.358 4.565-11.738 7.948-17.768 11.674-.932.574-3.103.651-3.691.014-5.862-6.303-11.507-12.803-17.208-19.246 2.977-1.61 7.43-4.04 11.9-6.436 4.397-2.367 8.698-4.84 11.856-9.462-34.597-20.758-47.904-53.464-52.631-91.78 4.013.658 7.746 1.253 11.465 1.876 6.317 1.072 12.62 2.242 18.951 3.194 2.157.322 2.913 1.422 3.145 3.397 2.934 24.932 15.603 44.24 34.653 59.838.77.63 1.632 1.155 3.095 2.185 1.653-7.606 3.278-14.575 4.679-21.592 4.083-20.52 5.848-41.3 6.835-62.163.056-1.17 1.142-3.103 2.045-3.292 7.284-1.548 14.637-2.773 21.977-4.062a5.858 5.858 0 011.485.168c0 6.71.126 13.328-.028 19.932zm165.794 2.087a69.113 69.113 0 01-30.92 22.636 30.506 30.506 0 01-16.83 1.204c-11.22-2.08-18.566-8.81-22.818-19.056-4.762-11.48-5.098-23.651-4.538-35.802.61-13.209 2.71-26.214 7.326-38.674 4.209-11.38 10.351-21.43 21.017-27.972 10.52-6.436 22.131-7.984 34.619-7.682-.792 9.49-1.443 18.314-2.382 27.103-.112.995-1.687 2.164-2.836 2.647-4.811 2.017-9.938 3.383-14.532 5.778-5.87 3.06-8.551 8.594-9.728 15.961l20.821-5.49c.61 9.16 1.261 17.957 1.667 26.76.035.791-1.338 2.031-2.311 2.41-7.592 2.969-15.198 5.917-22.901 8.564-2.837.98-3.51 2.27-2.823 5.12 1.85 7.676 6.787 10.38 14.091 7.088a47.776 47.776 0 007.935-5c2.542-1.829 4.903-3.916 7.494-6.003 5.316 6.142 11.402 13.18 17.649 20.408zM287.328 618.43c-8.236 16.109-11.051 33.393-10.302 51.19.526 12.43 2.087 24.834 3.635 37.195 2.703 21.627 6.233 43.176 4.973 65.09-.274 4.728-.897 9.434-1.415 14.666-10.176-2.648-19.806-5.148-29.569-7.683.595-5.715 1.779-11.255 1.618-16.753-.406-13.958-1.177-27.916-2.234-41.838-1.45-19.155-4.251-38.26-4.72-57.43-.498-20.211 4.426-39.527 15.743-56.756 1.387-2.115 2.907-4.146 4.637-6.597 6.142 5.512 11.814 10.52 17.326 15.702a3.484 3.484 0 01.308 3.215zm42.75-1.638c-5.204 12.641-8.376 25.815-7.872 39.472.644 17.683 1.89 35.353 3.334 52.995 1.694 20.751 2.367 41.426-1.471 62.023-.294 1.59-.785 3.138-1.268 5.035-9.076-3.368-17.985-6.667-26.963-9.994.924-5.567 2.479-10.918 2.57-16.297.238-13.02.301-26.08-.504-39.072-1.107-17.782-3.873-35.473-4.483-53.255-.812-23.658 4.252-46.097 18.427-65.763a42.59 42.59 0 011.253-1.673 5.73 5.73 0 01.869-.659c4.419 4.118 8.922 8.257 13.355 12.48 2.185 2.08 5.512 4.062 5.981 6.535.463 2.43-2.094 5.4-3.228 8.173z" transform="translate(-3.654 -589.604)"/></svg>