<svg id="Lager_1" data-name="Lager 1" xmlns="http://www.w3.org/2000/svg" viewBox="0 0 494.5248 319.92018"><defs><style>.cls-1{fill:#1f3d7e;}</style></defs><title>logo2</title><path class="cls-1" d="M498.07769,709.40606c-.99453,16.8644-9.52474,29.933-23.30766,39.12154-8.19415,5.45571-17.27065,9.64383-26.151,13.993-21.66879,10.61733-43.45675,20.99652-65.19563,31.45274q-42.23106,20.31711-84.46911,40.60627-44.10107,21.25211-88.1671,42.56729-33.06,15.947-66.169,31.78184a7.722,7.722,0,0,1-5.18962.27314c-11.8499-3.85192-23.6368-7.921-35.43067-11.92693-.63734-.21711-1.23963-.53928-2.61234-1.14859,11.48576-5.28763,22.26415-10.27412,33.05653-15.2256q48.95449-22.42873,97.91591-44.83641Q277.6461,815.327,322.94825,794.6036q57.21153-26.22105,114.40906-52.4702c7.41676-3.39668,15.26766-6.14208,20.96852-12.27715a60.29326,60.29326,0,0,0,8.21509-11.17756c4.22313-7.45173,2.77344-14.74937-3.03249-20.53426a201.97616,201.97616,0,0,0-18.60834-15.81392c-8.026-6.26113-15.947-12.52927-21.33263-21.42367-5.29469-8.73339-5.51175-18.34217-5.30871-28.09107.37822-17.49473,13.00555-31.50172,30.87148-34.50621,7.16456-1.21163,14.161-1.21163,21.08051.9735.98051.30811,2.4443,1.49871,2.41626,2.24108-.3082,9.1676-.85441,18.32819-1.35171,27.71986-4.42618-.79841-8.4042-1.54779-12.38924-2.22009-3.41061-.5743-6.70932-.091-8.88038,2.77335-2.45123,3.23562-3.69787,7.34671-1.35864,10.79943a48.95161,48.95161,0,0,0,9.86089,10.58228c7.17859,5.73586,15.31665,10.34418,22.124,16.46523C492.88106,678.65368,499.0582,692.83576,498.07769,709.40606Z" transform="translate(-3.65398 -589.60422)"/><path class="cls-1" d="M137.55857,802.23743c-2.58429,18.8464-9.06954,35.942-22.92945,49.49372-12.088,11.81489-27.01951,18.46121-43.19757,22.53024-12.62733,3.1726-24.75739,1.77891-36.13808-4.72736-11.96195-6.84239-19.12655-17.6278-23.72085-30.164a126.8938,126.8938,0,0,1-4.93745-71.55478c3.57877-16.73834,8.53025-32.89541,16.90645-47.91092,10.94647-19.63083,26.26312-34.94747,45.42468-46.51722,18.46122-11.13558,38.65232-17.78891,59.45973-22.83144a17.15593,17.15593,0,0,1,2.48623-.16106c-1.51975,7.0035-2.94849,13.67781-4.4122,20.35216-.72839,3.29867-1.77891,6.55527-2.17812,9.88894-.34316,2.89946-1.8559,3.81691-4.39817,4.46122a130.08551,130.08551,0,0,0-33.72883,13.25061C66.263,709.89627,52.354,726.68368,43.75371,747.86927c-6.47123,15.961-11.06552,32.45423-10.63131,49.88591.25913,10.44925,1.84894,20.75137,7.05253,30.017a45.94741,45.94741,0,0,0,7.914,10.099,15.86767,15.86767,0,0,0,13.57979,4.32114c25.17759-3.48071,44.93443-24.93244,44.51424-49.22056-.021-1.23263-.28717-2.45824-.49727-4.15312-13.4327,4.83244-26.20708,9.42673-39.60477,14.24514.37817-5.26665.67936-9.87492,1.0365-14.47622.62332-7.9,1.32367-15.79989,1.912-23.70687.16808-2.26212.70035-3.85192,3.18659-4.75536,20.69533-7.49375,41.34163-15.13455,62.56923-22.93646.57429,3.42472,1.21865,6.66735,1.64585,9.945C138.7912,765.455,140.08683,783.80422,137.55857,802.23743Z" transform="translate(-3.65398 -589.60422)"/><path class="cls-1" d="M246.31589,725.80124c-.44819,20.11407-2.8294,39.99-8.17307,59.42471-5.946,21.60578-15.15558,41.46769-32.58726,56.32913-5.35769,4.56626-11.73787,7.949-17.76787,11.67482-.93148.5743-3.10259.65132-3.69086.014-5.86192-6.30314-11.50674-12.80241-17.2076-19.24564,2.97649-1.61079,7.4307-4.041,11.89894-6.43622,4.39821-2.36718,8.69833-4.83939,11.85691-9.46173-34.59725-20.75834-47.9039-53.46468-52.63126-91.78084,4.013.65833,7.74586,1.25365,11.46472,1.87693,6.31713,1.07156,12.62028,2.24113,18.95147,3.19359,2.15709.32218,2.91343,1.42174,3.14456,3.39673,2.93447,24.93244,15.60377,44.24109,34.6533,59.83789.77041.63029,1.63183,1.15555,3.09558,2.18509,1.65281-7.60579,3.27763-14.57428,4.67833-21.5918,4.083-20.52024,5.8479-41.29961,6.83542-62.16306.056-1.16957,1.14153-3.10255,2.045-3.29161,7.28361-1.54779,14.63729-2.7734,21.977-4.06206a5.85777,5.85777,0,0,1,1.48474.16807C246.34393,712.57863,246.47,719.19694,246.31589,725.80124Z" transform="translate(-3.65398 -589.60422)"/><path class="cls-1" d="M412.10974,727.88826a69.1132,69.1132,0,0,1-30.92046,22.63532,30.50627,30.50627,0,0,1-16.82943,1.20462c-11.21962-2.08006-18.56628-8.81041-22.81737-19.05653-4.76232-11.47875-5.09856-23.65083-4.53825-35.80189.6093-13.20858,2.71035-26.21409,7.32563-38.6733,4.20911-11.38068,10.35119-21.43073,21.01751-27.972,10.51927-6.43622,22.131-7.984,34.61833-7.68286-.79148,9.48973-1.44276,18.31417-2.38121,27.10355-.11208.99448-1.68786,2.1641-2.83645,2.6473-4.8114,2.017-9.938,3.3827-14.53226,5.77788-5.86893,3.06057-8.55124,8.59331-9.72787,15.961,7.16457-1.891,13.78293-3.63482,20.82139-5.49077.60939,9.16059,1.26067,17.957,1.66692,26.76039.035.7914-1.33777,2.031-2.31119,2.4092-7.59185,2.96948-15.19755,5.918-22.9014,8.56527-2.83645.9805-3.50876,2.26912-2.82243,5.11955,1.84885,7.67585,6.78635,10.37919,14.091,7.08754a47.77592,47.77592,0,0,0,7.935-5.00046c2.54227-1.82795,4.90245-3.915,7.49371-6.002C399.77659,713.62214,405.86259,720.66069,412.10974,727.88826Z" transform="translate(-3.65398 -589.60422)"/><path class="cls-1" d="M287.32838,618.4306c-8.23608,16.108-11.0515,33.39268-10.30212,51.18859.52526,12.43121,2.087,24.83438,3.63481,37.19557,2.70334,21.62681,6.23309,43.17655,4.97247,65.09052-.27315,4.72736-.89642,9.43369-1.41468,14.66533-10.1761-2.64734-19.80591-5.1476-29.56879-7.68286.59528-5.71484,1.77887-11.25463,1.61781-16.75236-.40622-13.958-1.17659-27.91593-2.23412-41.83889-1.44973-19.1546-4.25113-38.26012-4.72035-57.42869-.49727-20.21209,4.42621-39.52775,15.74385-56.75634,1.38672-2.11507,2.90647-4.1461,4.63631-6.59733,6.14208,5.51175,11.8149,10.51927,17.32669,15.70188A3.48425,3.48425,0,0,1,287.32838,618.4306Z" transform="translate(-3.65398 -589.60422)"/><path class="cls-1" d="M330.07776,616.7918c-5.20355,12.64131-8.37616,25.81489-7.87193,39.47171.64427,17.68384,1.89091,35.35365,3.33368,52.99547,1.69479,20.75137,2.3671,41.42571-1.47081,62.023-.29409,1.58981-.7843,3.13755-1.26759,5.03552-9.07659-3.36869-17.985-6.66735-26.96347-9.994.92443-5.56775,2.47918-10.91843,2.57032-16.29711.23809-13.01953.3011-26.081-.50423-39.07255-1.10661-17.78185-3.873-35.4727-4.4823-53.25459-.81239-23.65784,4.25113-46.097,18.4262-65.76287.40626-.56728.81944-1.12755,1.25366-1.6738a5.73045,5.73045,0,0,1,.86842-.65833c4.41925,4.11806,8.92245,8.25711,13.35572,12.48024,2.185,2.08,5.51167,4.062,5.98093,6.53423C333.76862,611.04893,331.21232,614.0184,330.07776,616.7918Z" transform="translate(-3.65398 -589.60422)"/></svg>